<svg xmlns="http://www.w3.org/2000/svg" viewBox="0 0 1024 383" role="img" aria-label="Ecoalfa servicios de salud"><defs><linearGradient id="sky" x1="0" x2="1" y1="0" y2="1"><stop offset="0" stop-color="#f6fbff"/><stop offset=".55" stop-color="#d8f4ef"/><stop offset="1" stop-color="#a4ddb0"/></linearGradient><linearGradient id="green" x1="0" x2="1"><stop offset="0" stop-color="#44b833"/><stop offset="1" stop-color="#39a929"/></linearGradient><clipPath id="leftPhoto"><path d="M0 0h724c-12 85-44 153-96 205-63 64-151 97-265 104-126 7-231-20-363-64Z"/></clipPath><filter id="soft" x="-10%" y="-10%" width="120%" height="120%"><feDropShadow dx="0" dy="14" stdDeviation="18" flood-color="#0f766e" flood-opacity=".18"/></filter></defs><rect width="1024" height="383" fill="url(#sky)"/><g clip-path="url(#leftPhoto)"><rect width="720" height="330" fill="#eef8fb"/><circle cx="98" cy="72" r="75" fill="#fff" opacity=".75"/><circle cx="180" cy="68" r="42" fill="#8ed8df" opacity=".55"/><path d="M0 278c86-41 179-40 285-3 99 35 179 30 252-16 49-31 88-68 135-103 25-18 49-30 76-38v265H0Z" fill="#fff" opacity=".78"/><g transform="translate(62 42)" filter="url(#soft)"><ellipse cx="113" cy="268" rx="104" ry="30" fill="#bdd7d2" opacity=".35"/><g transform="translate(0 30)"><circle cx="83" cy="78" r="46" fill="#8b6a5b"/><path d="M42 79c-7-35 20-65 56-68 27-2 48 10 61 32-19-6-38-1-57 5-21 6-39 9-60 31Z" fill="#f3f3f3"/><path d="M39 112c36 43 86 45 123 0l28 136H14Z" fill="#f8f4ef"/><path d="M24 168c43 32 105 32 146 0l17 80H8Z" fill="#fff"/><circle cx="100" cy="82" r="5" fill="#3e2b25"/><path d="M96 107c14 8 29 7 42-1" fill="none" stroke="#5b3c32" stroke-width="5" stroke-linecap="round"/></g><g transform="translate(205 0)"><path d="M92 49c54 0 89 38 85 91-3 38-23 68-59 82-45 18-94 3-119-34-26-38-23-91 7-121 20-20 48-18 86-18Z" fill="#4e332c"/><circle cx="86" cy="106" r="58" fill="#9f6f55"/><path d="M39 96c21-48 63-61 112-36 0 0-27-52-83-41-42 8-66 40-64 79 12-2 23-2 35-2Z" fill="#2d221f"/><path d="M48 158c25 26 63 28 90 3" fill="none" stroke="#5f372c" stroke-width="6" stroke-linecap="round"/><path d="M6 217c39-54 126-55 166-1l31 125H-20Z" fill="#0e91c8"/><path d="M38 225c31 30 86 31 118 1" fill="none" stroke="#fff" stroke-width="10" opacity=".35"/><path d="M33 126c-30 30-25 78 12 97" fill="none" stroke="#263238" stroke-width="8" stroke-linecap="round"/><path d="M138 126c32 34 23 82-15 98" fill="none" stroke="#263238" stroke-width="8" stroke-linecap="round"/><circle cx="132" cy="229" r="18" fill="none" stroke="#263238" stroke-width="8"/><path d="M45 223c19 41 65 52 102 23" fill="none" stroke="#263238" stroke-width="8" stroke-linecap="round"/></g><path d="M-58 28c83 108 130 202 123 320" fill="none" stroke="#ffe84a" stroke-width="14" opacity=".95"/><path d="M359 22c-4 117-4 218-79 302" fill="none" stroke="#ffe84a" stroke-width="14" opacity=".95"/></g></g><path d="M604 0h420v342c-107 33-238 4-361-40-54-20-99-28-153-21 110-73 163-166 94-281Z" fill="url(#green)"/><path d="M0 344c96-32 177-26 286 5 89 25 162 19 235-19 82-42 171-43 289-5 78 25 146 30 214 14v44H0Z" fill="#39aa2c"/><path d="M0 350c110 16 239 17 354-5 133-25 212-66 337-51 118 14 223 52 333 33v56H0Z" fill="#2f9f28" opacity=".9"/><g transform="translate(770 26)" fill="none" stroke="#fff" stroke-width="4" opacity=".95"><circle cx="77" cy="38" r="37"/><path d="M58 30c0 30 38 30 38 0"/><path d="M58 30v-9M96 30v-9"/><circle cx="112" cy="56" r="10"/><path d="M96 52c13 2 21 8 22 22"/></g><g fill="#fff" font-family="Arial, Helvetica, sans-serif" text-anchor="middle"><text x="846" y="128" font-size="52" font-weight="900">ECOALFA</text><text x="846" y="154" font-size="8" font-weight="700">su salud es lo más importante</text><text x="845" y="207" font-size="21">★ Servicios de consulta externa</text><text x="845" y="232" font-size="21">★ Servicios de apoyo diagnóstico</text><text x="845" y="257" font-size="21">y terapéutico</text><text x="845" y="290" font-size="21">★ Programas de promoción y prevención</text><text x="835" y="355" font-size="34">3228971484</text><text x="942" y="356" font-size="28">☘</text></g></svg>
